# xmcd
#
# Track frame offsets:
#	150
#	20695
#	33597
#	50455
#	68169
#	84445
#	98232
#	116809
#	130961
#	142831
#
# Disc length: 2248 seconds
# Revision: 0
# Processed by: cddbd v1.5.2PL0 Copyright (c) Steve Scherf et al.
# Submitted via: dBpowerAMP V12.0
#
DISCID=8708c60a
DTITLE=Various Artist - West of West Virginia
DYEAR=2018
DGENRE=Bluegrass
TTITLE0=Dan Boner - Where Grass Won't Grow
TTITLE1=Dan Boner - You're Not Fooling Me
TTITLE2=Dan Boner - Quiet House
TTITLE3=Dan Boner - Darby's Castle
TTITLE4=Dan Boner feat. Rhonda Vncent - Here Today and Gone Tomorrow
TTITLE5=Dan Boner - Why Don't You Tell Me So
TTITLE6=Dan Boner - Raven Tresses
TTITLE7=Dan Boner feat. Sally Berry and Buck Trent - The Last Thing on My Mind
TTITLE8=Dan Boner feat. Hunter Berry - Roanoke
TTITLE9=Dan Boner - West of West Virginia
EXTD=
EXTT0=
EXTT1=
EXTT2=
EXTT3=
EXTT4=
EXTT5=
EXTT6=
EXTT7=
EXTT8=
EXTT9=
PLAYORDER=
